<svg xmlns="http://www.w3.org/2000/svg" viewBox="0 -0.5 206 206" shape-rendering="crispEdges">
<metadata>Made with Pixels to Svg https://codepen.io/shshaw/pen/XbxvNj</metadata>
<path stroke="#ffffff" d="M0 0h206M0 1h206M0 2h206M0 3h206M0 4h206M0 5h206M0 6h206M0 7h206M0 8h206M0 9h206M0 10h206M0 11h206M0 12h206M0 13h206M0 14h206M0 15h206M0 16h206M0 17h206M0 18h206M0 19h206M0 20h206M0 21h206M0 22h206M0 23h206M0 24h206M0 25h206M0 26h206M0 27h206M0 28h206M0 29h206M0 30h206M0 31h206M0 32h206M0 33h206M0 34h206M0 35h141M143 35h1M150 35h56M0 36h133M151 36h55M0 37h128M151 37h55M0 38h123M151 38h55M0 39h119M151 39h55M0 40h115M151 40h55M0 41h112M151 41h55M0 42h109M151 42h55M0 43h107M151 43h55M0 44h104M151 44h55M0 45h102M151 45h55M0 46h100M151 46h55M0 47h98M151 47h55M0 48h96M151 48h55M0 49h94M151 49h55M0 50h92M151 50h55M0 51h90M151 51h55M0 52h89M151 52h55M0 53h87M151 53h55M0 54h85M151 54h55M0 55h84M151 55h55M0 56h82M151 56h55M0 57h81M151 57h55M0 58h79M151 58h55M0 59h78M151 59h55M0 60h77M151 60h55M0 61h75M151 61h55M0 62h74M151 62h55M0 63h73M151 63h55M0 64h72M151 64h55M0 65h70M151 65h55M0 66h69M151 66h55M0 67h68M151 67h55M0 68h67M151 68h55M0 69h66M151 69h55M0 70h65M151 70h55M0 71h64M151 71h55M0 72h63M151 72h55M0 73h62M150 73h56M0 74h61M140 74h66M0 75h60M133 75h73M0 76h60M129 76h77M0 77h59M126 77h80M0 78h58M123 78h83M0 79h57M120 79h86M0 80h56M118 80h88M0 81h55M116 81h90M0 82h55M113 82h93M0 83h54M112 83h94M0 84h53M110 84h96M0 85h52M108 85h98M0 86h52M106 86h100M0 87h51M105 87h101M0 88h50M103 88h103M0 89h49M102 89h104M0 90h49M101 90h105M0 91h48M99 91h107M0 92h48M98 92h108M0 93h47M97 93h109M0 94h46M96 94h110M0 95h46M95 95h111M0 96h45M94 96h112M0 97h45M92 97h114M0 98h44M91 98h115M0 99h44M90 99h116M0 100h43M90 100h116M0 101h43M89 101h117M0 102h42M88 102h118M0 103h41M87 103h119M0 104h41M86 104h120M0 105h41M85 105h121M0 106h40M85 106h121M0 107h40M84 107h122M0 108h39M83 108h123M0 109h39M82 109h124M0 110h38M82 110h124M0 111h38M81 111h125M0 112h37M80 112h126M0 113h37M80 113h126M0 114h37M79 114h127M0 115h36M79 115h127M0 116h36M78 116h128M0 117h36M78 117h128M0 118h35M77 118h129M0 119h35M77 119h99M182 119h24M0 120h35M76 120h98M184 120h22M0 121h34M75 121h98M185 121h21M0 122h11M13 122h1M15 122h1M17 122h1M19 122h1M21 122h1M23 122h1M25 122h1M27 122h1M29 122h1M31 122h1M33 122h1M75 122h1M97 122h75M186 122h20M0 123h10M98 123h73M187 123h19M0 124h11M97 124h73M188 124h18M0 125h13M95 125h23M128 125h27M166 125h4M177 125h4M188 125h18M0 126h14M94 126h21M131 126h21M168 126h2M176 126h6M188 126h18M0 127h15M92 127h21M132 127h19M176 127h6M188 127h18M0 128h16M91 128h21M134 128h15M176 128h6M188 128h18M0 129h17M89 129h21M135 129h13M176 129h6M188 129h18M0 130h18M88 130h22M136 130h11M176 130h6M188 130h18M0 131h19M86 131h23M136 131h11M177 131h3M188 131h18M0 132h21M85 132h23M137 132h9M187 132h19M0 133h22M83 133h25M121 133h3M137 133h9M186 133h20M0 134h23M82 134h25M120 134h6M138 134h7M158 134h5M186 134h20M0 135h24M80 135h27M119 135h7M138 135h7M157 135h7M184 135h22M0 136h25M79 136h28M118 136h9M139 136h6M157 136h7M183 136h23M0 137h26M77 137h29M118 137h9M139 137h5M156 137h8M176 137h30M0 138h27M76 138h30M118 138h9M139 138h5M156 138h9M177 138h29M0 139h28M74 139h32M118 139h10M139 139h5M156 139h9M177 139h29M0 140h30M73 140h33M118 140h10M139 140h5M156 140h9M177 140h29M0 141h31M71 141h35M118 141h10M139 141h5M155 141h10M177 141h29M0 142h32M70 142h36M118 142h10M140 142h4M155 142h10M177 142h29M0 143h33M69 143h37M118 143h10M139 143h5M155 143h10M177 143h29M0 144h34M67 144h39M119 144h9M140 144h4M155 144h10M177 144h29M0 145h35M66 145h40M120 145h8M140 145h3M155 145h10M177 145h29M0 146h36M64 146h43M123 146h1M140 146h3M155 146h10M177 146h29M0 147h38M63 147h44M139 147h4M155 147h10M177 147h29M0 148h39M61 148h47M139 148h4M155 148h10M177 148h29M0 149h40M60 149h48M139 149h4M155 149h10M177 149h29M0 150h41M58 150h51M139 150h5M155 150h10M177 150h29M0 151h42M57 151h53M139 151h5M155 151h10M177 151h29M0 152h43M55 152h56M139 152h5M155 152h10M177 152h29M0 153h44M54 153h58M126 153h1M139 153h5M156 153h9M177 153h29M0 154h46M52 154h63M123 154h4M138 154h6M156 154h9M177 154h29M0 155h47M51 155h76M138 155h6M156 155h9M177 155h29M0 156h48M50 156h76M138 156h6M156 156h9M177 156h29M0 157h126M137 157h7M156 157h8M176 157h30M0 158h125M137 158h8M157 158h7M176 158h30M0 159h124M137 159h8M157 159h7M176 159h30M0 160h109M112 160h9M136 160h9M158 160h5M175 160h31M0 161h109M135 161h11M175 161h31M0 162h109M135 162h11M174 162h32M0 163h109M134 163h13M174 163h32M0 164h109M133 164h15M173 164h33M0 165h109M132 165h16M172 165h34M0 166h109M130 166h19M171 166h35M0 167h109M129 167h22M170 167h36M0 168h109M127 168h25M169 168h37M0 169h110M123 169h32M166 169h40M0 170h206M0 171h206M0 172h206M0 173h206M0 174h206M0 175h206M0 176h206M0 177h206M0 178h206M0 179h206M0 180h206M0 181h206M0 182h206M0 183h206M0 184h206M0 185h206M0 186h206M0 187h206M0 188h206M0 189h206M0 190h206M0 191h206M0 192h206M0 193h206M0 194h206M0 195h206M0 196h206M0 197h206M0 198h206M0 199h206M0 200h206M0 201h206M0 202h206M0 203h206M0 204h206M0 205h206" />
<path stroke="#eeeeee" d="M141 35h2M144 35h2M147 35h1M133 36h1M123 38h1M115 40h1M112 41h1M109 42h1M104 44h1M79 58h1M70 65h1M69 66h1M67 68h1M61 74h1M138 74h2M60 75h1M125 77h1M122 78h1M117 80h1M115 81h1M111 83h1M109 84h1M49 89h1M100 90h1M46 94h1M94 95h1M93 96h1M89 100h1M88 101h1M41 103h1M84 106h1M38 110h1M37 112h1M36 115h1M77 117h1M35 118h1M76 119h1M181 119h1M34 121h1M11 122h2M14 122h1M16 122h1M18 122h1M20 122h1M22 122h1M24 122h1M26 122h1M28 122h1M30 122h1M32 122h1M76 122h20M10 123h1M97 123h1M11 124h1M170 124h1M187 124h1M127 125h1M176 125h1M93 126h1M130 126h1M90 128h1M133 128h1M149 128h1M110 129h1M134 129h1M148 129h1M18 130h1M87 130h1M135 130h1M147 130h1M19 131h1M180 131h1M187 131h1M84 132h1M119 134h1M138 136h1M156 136h1M164 137h1M27 138h1M127 138h1M176 138h1M28 139h1M176 139h1M139 142h1M68 143h1M165 144h1M35 145h1M65 145h1M106 145h1M139 145h1M143 145h1M165 145h1M36 146h1M124 146h1M139 146h1M143 146h1M165 146h1M62 147h1M165 147h1M143 148h1M165 148h1M59 149h1M143 149h1M165 149h1M165 150h1M43 152h1M44 153h1M112 153h1M127 153h1M138 153h1M155 153h1M176 155h1M49 156h1M176 156h1M144 157h1M164 157h1M156 158h1M136 159h1M109 160h1M121 160h1M109 162h1M134 162h1M109 164h1M148 165h1M109 166h1M149 166h1M128 167h1M109 168h1M126 168h1M152 168h1M168 168h1M110 169h1M155 169h1M165 169h1" />
<path stroke="#dddddd" d="M146 35h1M148 35h1M134 36h2M150 36h1M150 37h1M150 38h1M119 39h1M150 39h1M150 40h1M150 41h1M150 42h1M150 43h1M150 44h1M150 45h1M150 46h1M150 47h1M150 48h1M150 49h1M150 50h1M90 51h1M150 51h1M150 53h1M150 55h1M82 56h1M150 57h1M150 59h1M75 61h1M150 63h1M68 67h1M66 69h1M65 70h1M64 71h1M63 72h1M62 73h1M149 73h1M137 74h1M132 75h1M119 79h1M55 81h1M52 85h1M107 85h1M104 87h1M50 88h1M48 91h1M96 93h1M95 94h1M87 102h1M83 107h1M39 108h1M81 110h1M78 115h1M176 119h1M96 122h1M96 124h1M178 124h2M155 125h1M165 125h1M152 126h1M175 127h1M175 128h1M146 132h1M124 133h1M81 134h1M145 134h1M185 134h1M126 135h1M78 136h1M182 136h1M26 137h1M144 137h1M75 138h1M155 140h1M165 143h1M34 144h1M139 144h1M119 145h1M121 146h2M125 146h1M143 147h1M42 151h1M56 151h1M127 152h1M53 153h1M115 154h1M155 154h1M50 155h1M126 156h1M175 159h1M145 160h1M109 161h1M146 162h1M109 163h1M109 165h1M131 165h1M109 167h1M111 169h1M122 169h1" />
<path stroke="#cccccc" d="M149 35h1M128 37h1M124 38h1M107 43h1M102 45h1M100 46h1M150 52h1M85 54h1M150 54h1M150 56h1M150 58h1M150 60h1M150 61h1M74 62h1M150 62h1M150 64h1M150 65h1M150 67h1M150 69h1M150 71h1M150 72h1M145 73h2M148 73h1M128 76h1M56 80h1M101 89h1M45 96h1M86 103h1M37 113h1M79 113h1M36 116h1M183 120h1M34 122h1M94 125h1M118 125h1M187 125h1M169 127h1M182 128h1M17 129h1M108 132h1M120 133h1M137 134h1M25 136h1M106 137h1M138 137h1M155 139h1M72 140h1M176 140h1M165 142h1M33 143h1M106 144h1M118 144h1M126 146h1M108 149h1M41 150h1M165 151h1M165 152h1M125 153h1M48 156h1M137 156h1M133 163h1M132 164h1M164 169h1" />
<path stroke="#bbbbbb" d="M136 36h1M116 40h1M113 41h1M110 42h1M98 47h1M96 48h1M92 50h1M73 63h1M150 66h1M150 68h1M150 70h1M147 73h1M136 74h1M131 75h1M124 77h1M53 84h1M97 92h1M44 98h1M43 100h1M42 102h1M40 106h1M35 119h1M177 119h1M180 119h1M174 120h1M186 123h1M126 125h1M156 125h1M164 125h1M181 125h1M115 126h1M91 127h1M113 127h1M16 128h1M88 129h1M175 129h1M136 132h1M107 134h1M24 135h1M118 135h1M164 136h1M127 137h1M106 138h1M144 138h1M117 139h1M117 140h1M117 141h1M165 141h1M32 142h1M69 142h1M66 144h1M63 146h1M107 147h1M40 149h1M111 152h1M138 152h1M165 153h1M122 154h1M176 154h1M155 155h1M144 156h1M122 160h1M116 161h2M173 163h1M169 167h1M112 169h1M121 169h1M156 169h1" />
<path stroke="#aaaaaa" d="M137 36h1M129 37h1M120 39h1M105 44h1M94 49h1M87 53h1M78 59h1M144 73h1M121 78h1M57 79h1M114 81h1M112 82h1M110 83h1M105 86h1M47 93h1M41 104h1M38 111h1M179 119h1M177 124h1M163 125h1M182 127h1M85 131h1M82 133h1M160 133h1M23 134h1M157 134h1M79 135h1M76 137h1M106 139h1M165 140h1M31 141h1M106 143h1M60 148h1M57 150h1M109 150h1M54 152h1M116 154h1M165 154h1M144 155h1M164 158h1M111 160h1M135 160h1M157 160h1M115 161h1M118 161h1M160 161h1M174 161h1M125 168h1M167 168h1M113 169h1M120 169h1M163 169h1" />
<path stroke="#888888" d="M138 36h1M130 37h1M125 38h1M108 43h1M89 52h1M84 55h1M77 60h1M54 83h1M108 84h1M51 87h1M39 109h1M37 114h1M77 116h1M75 120h1M74 122h1M180 124h1M124 125h1M161 125h1M92 126h1M175 126h1M182 129h1M22 133h1M161 133h1M156 135h1M181 136h1M165 139h1M30 140h1M70 141h1M106 141h1M117 142h1M67 143h1M120 146h1M127 146h1M38 147h1M46 154h1M117 154h1M120 154h2M110 160h1M127 167h1M115 169h1M119 169h1M158 169h1M161 169h2" />
<path stroke="#666666" d="M139 36h2M126 38h1M106 44h1M101 46h1M91 51h1M86 54h1M80 58h1M71 65h1M60 76h1M126 76h1M55 82h1M52 86h1M103 87h1M48 92h1M92 96h1M45 97h1M91 97h1M90 98h1M84 105h1M40 107h1M78 114h1M172 122h1M160 125h1M116 126h1M170 126h1M187 127h1M86 130h1M83 132h1M186 132h1M80 134h1M163 134h1M107 135h1M127 136h1M175 137h1M29 139h1M138 139h1M144 140h1M128 142h1M128 144h1M176 144h1M128 145h1M58 149h1M138 150h1M176 150h1M55 151h1M45 153h1M124 153h1M119 154h1M163 160h1M113 161h1M120 161h1M134 161h1M146 161h1M172 164h1M171 165h1M170 166h1M160 169h1" />
<path stroke="#444444" d="M141 36h2M133 37h1M127 38h1M115 41h1M95 49h1M75 62h1M68 68h1M139 73h1M62 74h1M61 75h1M129 75h1M115 80h1M113 81h1M111 82h1M100 89h1M94 94h1M88 100h1M41 105h1M83 106h1M36 118h1M35 121h1M13 123h3M17 123h5M23 123h5M29 123h3M33 123h1M128 126h1M166 126h1M168 127h1M150 128h1M19 130h1M134 130h1M148 130h1M123 132h1M108 133h1M136 133h1M164 135h1M145 136h1M178 136h2M27 137h1M74 138h1M71 140h1M144 141h1M68 142h1M117 143h1M35 144h1M154 145h1M154 147h1M176 147h1M108 148h1M138 148h1M154 148h1M138 149h1M43 151h1M127 155h1M165 156h1M136 157h1M175 157h1M148 164h1M130 165h1M150 166h1M110 168h1M154 168h1" />
<path stroke="#333333" d="M143 36h2M122 39h1M149 41h1M112 42h1M109 43h1M104 45h1M149 49h1M88 53h1M79 59h1M69 67h1M67 69h1M66 70h1M65 71h1M64 72h1M63 73h1M138 73h1M133 74h1M117 79h1M56 81h1M109 83h1M53 85h1M95 93h1M47 94h1M87 101h1M86 102h1M42 103h1M39 110h1M37 115h1M75 119h1M74 121h1M12 123h1M34 123h1M117 126h1M90 127h1M130 127h1M18 129h1M87 129h1M133 129h1M149 129h1M182 130h1M84 131h1M121 132h1M119 133h1M162 133h1M185 133h1M184 134h1M26 136h1M107 136h1M117 136h1M138 141h1M144 142h1M154 143h1M65 144h1M154 144h1M62 146h1M138 147h1M59 148h1M154 150h1M154 151h1M128 152h1M144 152h1M114 153h1M137 154h1M126 157h1M164 159h1M123 160h1M174 160h1M162 161h1M173 162h1M149 165h1M168 167h1M123 168h1" />
<path stroke="#111111" d="M145 36h1M147 36h2M135 37h1M124 39h1M119 40h1M116 41h1M107 44h1M102 46h1M149 50h1M92 51h1M149 51h1M149 52h1M149 53h1M149 54h1M85 55h1M149 55h1M149 56h1M149 57h1M149 58h1M149 59h1M149 60h1M149 61h1M149 62h1M149 63h1M73 64h1M149 64h1M149 65h1M146 72h3M137 73h1M57 80h1M54 84h1M107 84h1M51 88h1M101 88h1M97 91h1M96 92h1M46 96h1M45 98h1M85 103h1M41 106h1M82 107h1M80 110h1M78 113h1M37 116h1M176 120h1M181 120h1M95 123h1M171 124h1M176 124h1M181 124h1M175 125h1M91 126h1M155 126h1M165 126h1M16 127h1M88 128h1M85 130h1M186 131h1M124 132h1M147 132h1M180 132h1M24 134h1M182 135h1M155 136h1M75 137h1M145 137h1M165 137h1M72 139h1M32 141h1M69 141h1M66 143h1M138 144h1M166 144h1M107 145h1M144 145h1M119 146h1M128 146h1M144 146h1M166 146h1M122 147h1M125 147h1M144 147h1M166 147h1M40 148h1M166 148h1M41 149h1M166 150h1M127 151h2M123 153h1M137 153h1M50 154h1M154 154h1M145 157h1M165 157h1M155 158h1M110 162h1M133 162h1M110 163h1M132 163h1M110 164h1M131 164h1M110 165h1M110 166h1M126 167h1M152 167h1M155 168h1" />
<path stroke="#222222" d="M146 36h1M149 36h1M134 37h1M149 37h1M128 38h1M149 38h1M123 39h1M149 39h1M149 40h1M149 42h1M149 43h1M149 44h1M149 45h1M149 46h1M149 47h1M149 48h1M90 52h1M82 57h1M74 63h1M149 72h1M132 74h1M128 75h1M125 76h1M122 77h1M119 78h1M104 86h1M49 91h1M40 108h1M77 115h1M76 117h1M74 123h21M186 124h1M127 126h1M152 127h1M17 128h1M177 132h1M81 133h1M118 134h1M25 135h1M78 135h1M137 136h1M175 138h1M128 139h1M154 141h1M33 142h1M138 142h1M154 142h1M34 143h1M138 143h1M144 143h1M144 144h1M118 145h1M138 145h1M138 146h1M123 147h2M144 148h1M144 149h1M42 150h1M56 150h1M144 150h1M144 151h1M53 152h1M112 152h1M154 152h1M154 153h1M48 155h1M175 156h1M135 159h1M112 161h1M121 161h1M128 166h1M165 168h1" />
<path stroke="#777777" d="M131 37h1M121 39h1M114 41h1M103 45h1M141 73h1M130 75h1M59 77h1M123 77h1M118 79h1M99 90h1M46 95h1M36 117h1M173 121h1M185 122h1M96 123h1M95 124h1M13 125h1M121 125h3M159 125h1M182 126h1M187 126h1M89 128h1M112 128h1M187 129h1M109 131h1M135 131h1M147 131h1M176 131h1M21 132h1M137 135h1M183 135h1M175 136h1M117 137h1M176 142h1M128 143h1M176 143h1M64 145h1M37 146h1M61 147h1M176 151h1M176 152h1M118 154h1M144 154h1M137 155h1M165 155h1M125 158h1M124 159h1M156 159h1M147 163h1M116 169h3M159 169h1" />
<path stroke="#555555" d="M132 37h1M118 40h1M111 42h1M99 47h1M97 48h1M93 50h1M83 56h1M76 61h1M70 66h1M140 73h1M134 74h1M120 78h1M106 85h1M50 89h1M93 95h1M44 99h1M89 99h1M43 101h1M81 109h1M38 112h1M79 112h1M175 120h1M182 120h1M16 123h1M22 123h1M28 123h1M32 123h1M12 124h1M93 125h1M154 126h1M114 127h1M170 127h1M132 128h1M187 128h1M111 129h1M110 130h1M175 130h1M20 131h1M181 131h1M122 132h1M178 132h2M125 133h1M146 133h1M158 133h1M126 134h1M77 136h1M177 136h1M180 136h1M155 137h1M28 138h1M165 138h1M128 140h1M138 140h1M128 141h1M36 145h1M176 145h1M107 146h1M154 146h1M176 146h1M176 148h1M154 149h1M176 149h1M44 152h1M126 152h1M52 153h1M144 153h1M49 155h1M155 157h1M145 158h1M158 161h1M124 168h1M166 168h1" />
<path stroke="#000000" d="M136 37h13M129 38h20M125 39h24M120 40h29M117 41h32M113 42h36M110 43h39M108 44h41M105 45h44M103 46h46M100 47h49M98 48h51M96 49h53M94 50h55M93 51h56M91 52h58M89 53h60M87 54h62M86 55h63M84 56h65M83 57h66M81 58h68M80 59h69M78 60h71M77 61h72M76 62h73M75 63h74M74 64h75M72 65h77M71 66h79M70 67h80M69 68h81M68 69h82M67 70h83M66 71h84M65 72h81M64 73h73M63 74h69M62 75h66M61 76h64M60 77h62M59 78h60M58 79h59M58 80h57M57 81h56M56 82h55M55 83h54M55 84h52M54 85h52M53 86h51M52 87h51M52 88h49M51 89h49M50 90h49M50 91h47M49 92h47M48 93h47M48 94h46M47 95h46M47 96h45M46 97h45M46 98h44M45 99h44M44 100h44M44 101h43M43 102h43M43 103h42M42 104h43M42 105h42M42 106h41M41 107h41M41 108h41M40 109h41M40 110h40M39 111h41M39 112h40M38 113h40M38 114h40M38 115h39M38 116h39M37 117h39M37 118h39M36 119h39M36 120h39M177 120h4M36 121h38M174 121h10M35 122h39M173 122h12M35 123h39M172 123h14M13 124h82M172 124h4M182 124h4M14 125h79M171 125h4M182 125h5M15 126h76M118 126h9M156 126h9M171 126h4M183 126h4M17 127h73M115 127h15M153 127h15M171 127h4M183 127h4M18 128h70M113 128h19M151 128h24M183 128h4M19 129h68M112 129h21M150 129h25M183 129h4M20 130h65M111 130h23M149 130h26M183 130h4M21 131h63M110 131h25M148 131h28M182 131h4M22 132h61M109 132h12M125 132h11M148 132h29M181 132h5M23 133h58M109 133h10M126 133h10M147 133h11M163 133h22M25 134h55M108 134h10M127 134h10M146 134h11M164 134h20M26 135h52M108 135h10M127 135h10M146 135h10M165 135h17M27 136h50M108 136h9M128 136h9M146 136h9M165 136h10M28 137h47M107 137h10M128 137h10M146 137h9M166 137h9M29 138h45M107 138h10M128 138h10M145 138h10M166 138h9M30 139h42M107 139h10M129 139h9M145 139h10M166 139h10M31 140h40M107 140h10M129 140h9M145 140h10M166 140h10M33 141h36M107 141h10M129 141h9M145 141h9M166 141h10M34 142h34M107 142h10M129 142h9M145 142h9M166 142h10M35 143h31M107 143h10M129 143h9M145 143h9M166 143h10M36 144h29M107 144h11M129 144h9M145 144h9M167 144h9M37 145h27M108 145h10M129 145h9M145 145h9M166 145h10M38 146h24M108 146h11M129 146h9M145 146h9M167 146h9M39 147h22M108 147h14M126 147h12M145 147h9M167 147h9M41 148h18M109 148h29M145 148h9M167 148h9M42 149h16M109 149h29M145 149h9M166 149h10M43 150h13M110 150h28M145 150h9M167 150h9M44 151h11M111 151h16M129 151h9M145 151h9M166 151h10M45 152h8M113 152h13M129 152h9M145 152h9M166 152h10M46 153h6M115 153h8M128 153h9M145 153h9M166 153h10M47 154h3M128 154h9M145 154h9M166 154h10M128 155h9M145 155h10M166 155h10M127 156h10M145 156h10M166 156h9M127 157h9M146 157h9M166 157h9M126 158h10M146 158h9M165 158h10M125 159h10M146 159h10M165 159h10M124 160h11M146 160h11M164 160h10M110 161h2M122 161h12M147 161h11M163 161h11M111 162h22M147 162h26M111 163h21M148 163h25M111 164h20M149 164h23M111 165h19M150 165h21M111 166h17M151 166h19M110 167h16M153 167h15M111 168h12M156 168h9" />
<path stroke="#999999" d="M117 40h1M81 57h1M72 64h1M142 73h2M135 74h1M127 76h1M58 78h1M116 80h1M102 88h1M49 90h1M98 91h1M85 104h1M82 108h1M80 111h1M76 118h1M178 119h1M35 120h1M184 121h1M11 123h1M171 123h1M119 125h2M125 125h1M157 125h2M162 125h1M170 125h1M14 126h1M129 126h1M153 126h1M167 126h1M15 127h1M131 127h1M151 127h1M187 130h1M159 133h1M145 135h1M176 136h1M117 138h1M138 138h1M155 138h1M73 139h1M144 139h1M106 140h1M176 141h1M106 142h1M39 148h1M110 151h1M138 151h1M113 153h1M176 153h1M51 154h1M127 154h1M47 155h1M155 156h1M136 158h1M175 158h1M145 159h1M114 161h1M119 161h1M159 161h1M161 161h1M129 166h1M151 167h1M153 168h1M114 169h1M157 169h1" />
</svg>